<svg width="180" height="27" viewBox="0 0 180 27" fill="none" xmlns="http://www.w3.org/2000/svg">
<path d="M25.8984 17.5099H35.2762C35.9711 15.5289 36.1834 13.4094 35.8953 11.329C35.6072 9.24854 34.8271 7.26784 33.6204 5.5529C32.4137 3.83797 30.8156 2.43877 28.96 1.47261C27.1044 0.506443 25.0455 0.00146452 22.9557 0H10.127V8.75264H25.8984V17.5099Z" fill="black"/>
<path d="M25.8981 17.5097H10.1267V8.75244H0.75347C0.0531865 10.733 -0.163308 12.8537 0.122218 14.936C0.407743 17.0183 1.18692 19.001 2.39414 20.7174C3.60136 22.4337 5.20124 23.8333 7.05906 24.7983C8.91687 25.7633 10.9782 26.2654 13.0694 26.2623H25.8981V17.5097Z" fill="black"/>
<path d="M141.232 7.18799H144.216V25.8309H141.232V23.3467C140.141 24.7397 138.358 26.0537 135.305 26.0537C131.23 26.0537 127.992 23.7321 127.992 17.5704V7.18799H130.976V17.4033C130.976 21.2758 132.722 23.3235 135.813 23.3235C139.194 23.3235 141.232 20.7279 141.232 16.5257V7.18799Z" fill="black"/>
<path d="M58.7202 26.0538C51.5552 26.0538 46.5706 20.57 46.5706 13.0525C46.5706 5.53501 51.5552 0.0512695 58.7202 0.0512695C65.8853 0.0512695 70.8652 5.53501 70.8652 13.0525C70.8652 20.57 65.8853 26.0538 58.7202 26.0538ZM58.7202 23.1285C64.0282 23.1285 67.6315 18.9217 67.6315 13.0386C67.6315 7.15552 64.0282 2.9487 58.7202 2.9487C53.4122 2.9487 49.8089 7.15088 49.8089 13.0386C49.8089 18.9263 53.4076 23.1285 58.7202 23.1285Z" fill="black"/>
<path d="M87.4132 7.18799H90.3929V25.8309H87.4132V23.3467C86.323 24.7397 84.5398 26.0537 81.4862 26.0537C77.4117 26.0537 74.1733 23.7321 74.1733 17.5704V7.18799H77.1576V17.4033C77.1576 21.2758 78.9039 23.3235 81.9944 23.3235C85.376 23.3235 87.4132 20.7279 87.4132 16.5257V7.18799Z" fill="black"/>
<path d="M95.9181 9.93195H92.5735V7.18777H95.9181V1.05859H98.9024V7.18777H103.702V9.93195H98.9024V23.0911H103.984V25.8306H100.75C97.1839 25.8306 95.9089 24.2612 95.9089 20.9691L95.9181 9.93195Z" fill="black"/>
<path d="M124.832 16.5115C124.832 22.2135 121.049 26.0535 115.921 26.0535C112.793 26.0535 110.687 24.772 109.555 22.9796L109.523 25.8306H106.575V1.05859H109.555V10.192C110.268 9.16786 111.223 8.33772 112.334 7.77609C113.445 7.21446 114.678 6.93891 115.921 6.97416C121.049 6.96952 124.832 10.4427 124.832 16.5115ZM121.779 16.5115C121.779 12.4533 119.303 9.63943 115.63 9.63943C111.957 9.63943 109.523 12.4533 109.523 16.4372C109.523 20.5326 111.994 23.4022 115.63 23.4022C119.266 23.4022 121.779 20.5605 121.779 16.5115Z" fill="black"/>
<path d="M151.27 7.19238H148.286V25.8353H151.27V7.19238Z" fill="black"/>
<path d="M155.341 1.05859H158.32V25.8353H155.341V1.05859Z" fill="black"/>
<path d="M177.016 1.05859H180V25.8353H177.016V22.8357C176.303 23.8598 175.348 24.69 174.236 25.2516C173.125 25.8132 171.893 26.0888 170.65 26.0535C165.522 26.0535 161.739 22.5803 161.739 16.5115C161.739 10.8095 165.522 6.96953 170.65 6.96953C173.777 6.96953 175.888 8.24643 177.016 10.0387V1.05859ZM177.053 16.5905C177.053 12.4951 174.581 9.6255 170.941 9.6255C167.301 9.6255 164.797 12.4393 164.797 16.4976C164.797 20.5558 167.268 23.3697 170.941 23.3697C174.613 23.3697 177.053 20.5605 177.053 16.5858V16.5905Z" fill="black"/>
<path d="M151.27 1.19775H148.286V4.19733H151.27V1.19775Z" fill="black"/>
</svg>
